<svg width="63" height="58" viewBox="0 0 63 58" fill="none" xmlns="http://www.w3.org/2000/svg">
<path d="M28.0026 25.6279H27.8955L28.1274 26.3694C28.7875 28.5396 29.4654 30.764 29.84 32.8257C30.1968 34.8874 30.3573 36.8225 29.4832 38.5587C29.1799 39.1736 28.8945 39.6438 28.5377 40.0778C28.1809 40.4938 27.6279 40.964 26.8252 41.0001C26.0403 41.0363 25.4516 40.6023 25.1305 40.2767C24.8272 39.9693 24.631 39.698 24.4526 39.4267C24.0601 38.8842 23.7212 38.414 23.3466 38.1427C22.9898 37.8534 22.6687 37.6906 21.8838 37.781C21.3308 37.8533 20.9026 38.1608 20.4566 38.9023C20.0285 39.6618 19.7252 40.7831 19.6539 41.9225C19.6004 43.0618 19.7966 44.2012 20.1355 44.9427C20.4745 45.6841 20.7956 45.9373 21.2237 45.9916C22.6508 46.2086 23.4536 45.4671 24.6845 44.599C25.291 44.165 26.0403 43.5682 27.2533 43.6586C28.4664 43.7491 29.3762 44.7076 30.0005 45.8469C30.8746 47.4746 30.6606 49.265 30.3395 51.2543C30.0005 53.2256 29.4118 55.4319 28.8232 57.6383C28.7875 57.7649 28.7518 57.8734 28.7161 58C31.838 57.8192 34.7636 57.2766 36.1728 56.5713C36.1907 56.5713 36.1907 56.5713 36.1907 56.5532C35.6733 55.7394 35.3701 54.6 35.4414 53.1713C35.5128 51.4352 36.4761 50.0065 37.6713 49.1745C38.8665 48.3426 40.2758 47.999 41.6673 47.9448C43.0587 47.8905 44.4323 48.1256 45.6097 48.7767C46.8049 49.4277 47.8753 50.6756 47.9109 52.2671C47.9466 54.1298 47.2331 55.4681 46.8584 56.083C47.0368 56.2277 47.2866 56.4085 47.679 56.6255C48.018 56.8245 49.2132 56.9692 50.8187 56.6979C52.4242 56.4447 54.4222 55.9021 56.4737 55.3415C57.2943 55.1245 58.1149 54.8894 58.9355 54.6724C58.8106 51.7245 58.3646 49.1022 57.883 48.1075C57.7402 47.782 57.6332 47.6554 57.544 47.5469C56.8661 47.9086 55.2785 49.1384 52.9415 49.1022C51.3539 49.0841 50.123 48.0352 49.3559 46.8597C48.6067 45.6841 48.1607 44.2735 48.018 42.8448C47.8753 41.398 48.0001 39.915 48.678 38.5948C49.3559 37.2746 50.7652 36.1895 52.4777 36.081C54.5471 35.9725 55.992 36.8406 56.8661 37.5459C56.9375 37.3831 57.0088 37.3289 57.098 37.13C57.3656 36.5151 57.4548 35.0321 57.1694 33.1874C56.9732 31.8672 56.6342 30.3481 56.2418 28.7928C54.1724 28.2502 52.1923 27.7258 50.569 27.4726C48.9099 27.2013 47.6612 27.346 47.3758 27.4907C47.2152 27.5811 47.1795 27.6353 47.0547 27.7077C47.572 28.5396 48.1964 29.9502 47.9288 31.813C47.4828 34.8874 44.6642 36.6236 42.024 37.0034C40.704 37.1842 39.3125 37.0576 38.0995 36.3885C36.8864 35.7193 35.9053 34.381 35.7269 32.7534C35.4236 29.9502 36.6188 27.9428 36.8686 27.2375C36.7437 27.147 36.4226 26.93 35.6377 26.6226C34.05 26.0077 31.1066 25.646 28.0026 25.6279Z" fill="#FFC24D"/>
<path d="M26.053 0.0017888C25.9257 0.332708 25.7803 0.681516 25.6712 1.05715C25.0349 3.01226 24.744 5.33049 25.5803 7.01192C25.6712 7.19437 25.7257 7.24088 25.7985 7.38219C26.6893 6.65417 28.1619 5.74548 30.3072 5.80988C32.0888 5.86175 33.5615 6.88671 34.4159 8.15851C35.2704 9.43032 35.6704 10.9418 35.7431 12.4515C35.8158 13.9594 35.5795 15.4745 34.925 16.7982C34.2705 18.1219 33.0524 19.3382 31.3798 19.5708C28.6346 19.9643 26.6529 18.4796 25.653 17.8357C25.4894 17.7462 25.4167 17.7283 25.3258 17.6747C25.2712 17.7641 25.2531 17.7641 25.1622 17.9788C25.0713 18.1576 24.9985 19.4456 25.3803 21.127C25.5258 21.7352 25.6894 22.397 25.9076 23.0767C29.6527 22.9873 33.3251 23.2735 35.9613 24.2752C37.3066 24.776 38.252 25.2232 38.9065 26.1534C39.561 27.0835 39.3973 28.3178 39.1246 29.0154C38.5974 30.4106 37.9429 31.1977 38.1429 32.9864C38.2338 33.6661 38.4338 33.8808 38.8701 34.1133C39.3064 34.3459 40.0518 34.4711 40.8518 34.3459C42.4516 34.1312 43.9242 33.058 44.0879 31.9489C44.3242 30.357 43.9788 30.3927 43.3788 29.6593C43.2334 29.4626 43.0152 29.23 42.8516 28.7829C42.688 28.3178 42.7243 27.5665 42.997 27.0835C43.5243 26.1176 44.1787 25.8493 45.1968 25.3127C46.7967 24.4541 48.5784 24.6329 50.5237 24.937C51.8872 25.1517 53.3598 25.4915 54.8506 25.8672C54.4324 24.2394 54.0506 22.6295 53.8143 21.127C53.5052 19.1057 53.378 17.2454 54.3052 15.5997C54.6324 15.0452 54.8869 14.6195 55.2142 14.2474C55.5232 13.8754 55.905 13.4657 56.6504 13.3101C57.3958 13.1527 58.1776 13.5427 58.5048 13.8485C58.8502 14.1544 58.9957 14.4031 59.1411 14.6195C59.432 15.0452 59.6684 15.3672 59.8865 15.5103C60.1047 15.6713 60.2683 15.7965 60.941 15.6892C61.3955 15.6355 61.8318 15.3314 62.2318 14.6875C62.6499 14.0507 62.9408 13.1008 62.9954 12.1796C63.0317 11.2584 62.8499 10.3873 62.5227 9.86856C62.2136 9.35161 61.9409 9.12802 61.2319 9.08866C60.2865 9.035 59.9047 9.2103 59.6865 9.34803C59.4684 9.48398 59.3775 9.61635 59.1957 9.92222C59.0866 10.0743 59.0684 10.2961 58.4866 10.6932C58.1958 10.8917 57.5958 11.0742 57.1049 10.9704C56.5959 10.8649 56.3232 10.618 56.1414 10.4392C55.4323 9.72904 55.3414 9.26038 54.7779 8.10306C53.4143 5.31081 53.5598 2.30034 54.0506 0L26.053 0.0017888Z" fill="#FF584D"/>
<path d="M25.6051 25.6279C22.1667 25.9003 18.9844 26.6265 17.7407 27.2983C17.4115 27.4798 17.2652 27.6069 17.1554 27.7159C17.631 28.4239 19.1124 30.1306 18.8929 32.6543C18.7649 34.2338 17.5944 35.4503 16.3324 35.995C15.0705 36.5578 13.664 36.6667 12.2575 36.5033C10.8529 36.3218 9.44098 35.8497 8.24485 35.0145C7.04873 34.1612 6.05379 32.8358 5.84712 31.1836C5.66422 29.7312 5.99892 28.4784 6.57138 27.6069C6.78353 27.2801 7.01581 27.0259 7.24259 26.8081C7.21516 26.7899 7.21333 26.7899 7.18407 26.7717C5.50327 25.9184 3.07993 26.1 1.03518 26.6628C0.667562 26.7536 0.32738 26.8625 0 26.9715V57.1648C0.323722 57.2738 0.662076 57.3827 1.02603 57.4735C3.06347 58.0363 5.48681 58.236 7.1987 57.3827C7.53705 57.2193 7.66874 57.1104 7.8498 56.9833C7.17675 56.1481 5.96417 54.4414 6.23851 51.8996C6.42323 50.2111 7.48585 48.8676 8.76244 48.105C10.039 47.3424 11.5168 47.052 12.9745 47.052C14.4303 47.052 15.8752 47.3606 17.1371 48.0687C18.3808 48.7586 19.4965 49.9751 19.716 51.5728C20.0269 53.9331 18.7649 55.5671 18.0882 56.366C18.1979 56.4386 18.2162 56.4749 18.4174 56.5838C19.5879 57.2374 22.9166 57.8729 26.4464 58C26.5745 57.5824 26.6842 57.183 26.7939 56.7654C27.3975 54.5504 27.9828 52.3898 28.2754 50.665C28.568 48.922 28.44 47.6148 28.2937 47.3606C28.1474 47.0883 28.0925 47.0338 28.0376 46.9612C27.9462 47.0156 27.8182 47.0701 27.617 47.2154C26.5745 47.9234 24.5626 49.5756 21.7095 49.158C19.9903 48.922 18.7466 47.6329 18.0882 46.2531C17.4298 44.8551 17.2103 43.2574 17.3018 41.6778C17.3749 40.0982 17.759 38.5005 18.5637 37.1569C19.3685 35.7953 20.7402 34.6333 22.5142 34.4336C24.0688 34.2702 25.4222 34.7422 26.3367 35.4321C26.9951 35.9042 27.4158 36.4307 27.7633 36.8846C28.001 36.3218 28.0925 35.0145 27.7633 33.2897C27.4524 31.5104 26.7939 29.368 26.1172 27.2075C25.9526 26.681 25.7697 26.1544 25.6051 25.6279Z" fill="#4DB4FF"/>
</svg>
