<svg width="107" height="99" viewBox="0 0 107 99" fill="none" xmlns="http://www.w3.org/2000/svg">
<path d="M47.5599 43.7441H47.3781L47.772 45.0098C48.893 48.7141 50.0444 52.511 50.6806 56.0301C51.2866 59.5492 51.5593 62.8522 50.0747 65.8156C49.5596 66.8651 49.0748 67.6677 48.4689 68.4086C47.8629 69.1186 46.9237 69.9212 45.5603 69.9829C44.2271 70.0447 43.2273 69.3038 42.6819 68.7482C42.1669 68.2234 41.8336 67.7604 41.5306 67.2973C40.8641 66.3712 40.2884 65.5686 39.6521 65.1056C39.0462 64.6117 38.5008 64.3339 37.1677 64.4882C36.2285 64.6117 35.5013 65.1365 34.7439 66.4021C34.0167 67.6986 33.5016 69.6125 33.3804 71.5573C33.2895 73.502 33.6228 75.4468 34.1985 76.7124C34.7742 77.978 35.3195 78.4102 36.0467 78.5028C38.4705 78.8733 39.8339 77.6076 41.9245 76.1259C42.9546 75.385 44.2271 74.3664 46.2874 74.5207C48.3477 74.675 49.8929 76.3111 50.9533 78.2559C52.4379 81.0341 52.0743 84.0902 51.529 87.4858C50.9533 90.8505 49.9535 94.6165 48.9536 98.3826C48.8931 98.5987 48.8325 98.7839 48.7719 99C54.074 98.6913 59.0429 97.7652 61.4365 96.5613C61.4668 96.5613 61.4668 96.5613 61.4668 96.5304C60.5881 95.1413 60.073 93.1966 60.1942 90.7579C60.3154 87.7944 61.9515 85.3558 63.9815 83.9358C66.0115 82.5158 68.405 81.9293 70.7683 81.8367C73.1315 81.7441 75.4645 82.1454 77.4641 83.2567C79.4941 84.368 81.312 86.4979 81.3726 89.2144C81.4332 92.394 80.2213 94.6783 79.585 95.7278C79.888 95.9748 80.3122 96.2835 80.9787 96.6539C81.5544 96.9935 83.5843 97.2404 86.3112 96.7774C89.038 96.3452 92.4314 95.4191 95.9156 94.4622C97.3094 94.0918 98.7031 93.6905 100.097 93.32C99.8847 88.2884 99.1272 83.8123 98.3092 82.1145C98.0668 81.5589 97.885 81.3428 97.7335 81.1576C96.5822 81.775 93.8857 83.8741 89.9166 83.8123C87.2201 83.7815 85.1295 81.991 83.8267 79.9846C82.5542 77.9781 81.7967 75.5703 81.5544 73.1316C81.312 70.6621 81.5241 68.1308 82.6754 65.8773C83.8267 63.6239 86.2203 61.7717 89.1289 61.5865C92.6435 61.4013 95.0976 62.883 96.5822 64.0869C96.7034 63.8091 96.8246 63.7165 96.9761 63.3769C97.4305 62.3274 97.582 59.7961 97.0973 56.6475C96.764 54.394 96.1883 51.801 95.5218 49.1462C92.0072 48.2202 88.6441 47.325 85.887 46.8928C83.0693 46.4298 80.9484 46.6767 80.4636 46.9237C80.191 47.078 80.1304 47.1706 79.9183 47.2941C80.7969 48.7141 81.8573 51.1219 81.4029 54.3014C80.6454 59.5492 75.8583 62.5126 71.3742 63.1608C69.1322 63.4695 66.7689 63.2535 64.7086 62.1113C62.6484 60.9691 60.982 58.6848 60.679 55.9066C60.1639 51.1219 62.1939 47.6954 62.6181 46.4915C62.406 46.3371 61.8606 45.9667 60.5275 45.4419C57.831 44.3924 52.8318 43.775 47.5599 43.7441Z" fill="#FFC24D"/>
<path d="M44.2488 0.00305329C44.0327 0.567899 43.7857 1.16328 43.6004 1.80445C42.5197 5.14162 42.0256 9.09859 43.446 11.9686C43.6004 12.28 43.693 12.3594 43.8165 12.6006C45.3296 11.358 47.8306 9.80694 51.4742 9.91686C54.5002 10.0054 57.0013 11.7549 58.4525 13.9257C59.9038 16.0966 60.5831 18.6765 60.7066 21.2535C60.8301 23.8273 60.4287 26.4134 59.3171 28.6728C58.2055 30.9322 56.1367 33.0084 53.296 33.4053C48.6335 34.077 45.2678 31.5428 43.5695 30.4436C43.2916 30.291 43.1681 30.2605 43.0137 30.1689C42.9211 30.3215 42.8902 30.3215 42.7358 30.6879C42.5814 30.9932 42.4579 33.1915 43.1064 36.0616C43.3534 37.0997 43.6313 38.2294 44.0018 39.3896C50.3626 39.2369 56.5999 39.7254 61.0772 41.4352C63.3621 42.2901 64.9677 43.0534 66.0793 44.6411C67.1909 46.2288 66.913 48.3355 66.4499 49.5263C65.5544 51.9078 64.4428 53.2512 64.7825 56.3044C64.9369 57.4646 65.2765 57.831 66.0176 58.2279C66.7586 58.6249 68.0246 58.8386 69.3832 58.6249C72.1005 58.2585 74.6016 56.4265 74.8795 54.5335C75.2809 51.8162 74.6942 51.8772 73.6752 50.6254C73.4282 50.2896 73.0577 49.8927 72.7798 49.1293C72.5019 48.3355 72.5636 47.0532 73.0268 46.2288C73.9223 44.5801 75.0338 44.1221 76.763 43.2061C79.4802 41.7406 82.5062 42.0459 85.8101 42.5649C88.126 42.9313 90.6271 43.5114 93.159 44.1526C92.4488 41.3742 91.8004 38.6263 91.399 36.0616C90.8741 32.6114 90.6579 29.4361 92.2327 26.6271C92.7885 25.6806 93.2208 24.954 93.7766 24.3189C94.3015 23.6838 94.9499 22.9846 96.2159 22.719C97.4819 22.4503 98.8096 23.1159 99.3654 23.638C99.9521 24.1601 100.199 24.5845 100.446 24.954C100.94 25.6806 101.342 26.2302 101.712 26.4745C102.083 26.7493 102.361 26.963 103.503 26.7798C104.275 26.6882 105.016 26.1691 105.695 25.07C106.406 23.983 106.9 22.3618 106.992 20.7894C107.054 19.217 106.745 17.73 106.189 16.8446C105.664 15.9622 105.201 15.5806 103.997 15.5134C102.391 15.4218 101.743 15.721 101.372 15.9561C101.002 16.1882 100.848 16.4141 100.539 16.9362C100.354 17.1957 100.323 17.5743 99.3346 18.2521C98.8405 18.5911 97.8215 18.9025 96.9878 18.7254C96.1233 18.5453 95.6601 18.1239 95.3513 17.8186C94.1471 16.6065 93.9927 15.8065 93.0355 13.8311C90.7197 9.06501 90.9667 3.92644 91.8004 0L44.2488 0.00305329Z" fill="#FF584D"/>
<path d="M43.4881 43.7441C37.6483 44.209 32.2433 45.4486 30.131 46.5953C29.5719 46.9052 29.3234 47.1221 29.137 47.308C29.9447 48.5167 32.4608 51.4297 32.088 55.7374C31.8706 58.4336 29.8825 60.5099 27.7392 61.4396C25.5958 62.4003 23.2071 62.5863 20.8184 62.3074C18.4327 61.9975 16.0347 61.1917 14.0032 59.7662C11.9716 58.3096 10.2818 56.0473 9.93082 53.2272C9.62019 50.748 10.1886 48.6096 11.1609 47.1221C11.5212 46.5643 11.9157 46.1304 12.3009 45.7585C12.2543 45.7275 12.2512 45.7275 12.2015 45.6965C9.34683 44.24 5.231 44.5499 1.75816 45.5106C1.1338 45.6655 0.556026 45.8515 0 46.0374V97.5744C0.549814 97.7603 1.12448 97.9463 1.74263 98.1012C5.20304 99.0619 9.31888 99.4028 12.2264 97.9463C12.801 97.6674 13.0247 97.4814 13.3322 97.2645C12.1891 95.8389 10.1296 92.9258 10.5956 88.5872C10.9093 85.7051 12.7141 83.4118 14.8822 82.1102C17.0504 80.8086 19.5603 80.3128 22.036 80.3128C24.5086 80.3128 26.9626 80.8396 29.106 82.0482C31.2182 83.2259 33.1131 85.3022 33.4858 88.0294C34.0139 92.0581 31.8706 94.8472 30.7212 96.2108C30.9076 96.3348 30.9387 96.3968 31.2804 96.5827C33.2684 97.6984 38.9218 98.783 44.917 99C45.1344 98.2872 45.3208 97.6054 45.5072 96.8926C46.5322 93.1118 47.5263 89.4239 48.0233 86.4799C48.5203 83.5048 48.3028 81.2735 48.0543 80.8396C47.8058 80.3747 47.7126 80.2818 47.6195 80.1578C47.4641 80.2508 47.2467 80.3438 46.905 80.5917C45.1344 81.8003 41.7175 84.6204 36.8717 83.9076C33.9518 83.5048 31.8395 81.3045 30.7212 78.9492C29.603 76.5629 29.2302 73.8358 29.3855 71.1396C29.5098 68.4434 30.1621 65.7163 31.5289 63.423C32.8956 61.0987 35.2254 59.1154 38.2385 58.7745C40.8788 58.4955 43.1775 59.3013 44.7306 60.4789C45.8489 61.2847 46.5633 62.1834 47.1535 62.9582C47.5573 61.9975 47.7126 59.7662 47.1535 56.8221C46.6254 53.785 45.5072 50.1282 44.3578 46.4403C44.0783 45.5416 43.7677 44.6429 43.4881 43.7441Z" fill="#4DB4FF"/>
<path d="M1.824 42V30.8H2.8L7.92 39.536H7.408L12.48 30.8H13.456V42H12.32V32.576H12.592L7.92 40.576H7.36L2.656 32.576H2.96V42H1.824ZM16.8653 42V33.6H18.0013V42H16.8653ZM17.4413 31.744C17.2066 31.744 17.0093 31.664 16.8493 31.504C16.6893 31.344 16.6093 31.152 16.6093 30.928C16.6093 30.704 16.6893 30.5173 16.8493 30.368C17.0093 30.208 17.2066 30.128 17.4413 30.128C17.6759 30.128 17.8733 30.2027 18.0333 30.352C18.1933 30.5013 18.2733 30.688 18.2733 30.912C18.2733 31.1467 18.1933 31.344 18.0333 31.504C17.8839 31.664 17.6866 31.744 17.4413 31.744ZM25.4501 33.52C26.1328 33.52 26.7301 33.6533 27.2421 33.92C27.7648 34.176 28.1701 34.5707 28.4581 35.104C28.7568 35.6373 28.9061 36.3093 28.9061 37.12V42H27.7701V37.232C27.7701 36.3467 27.5461 35.68 27.0981 35.232C26.6608 34.7733 26.0421 34.544 25.2421 34.544C24.6448 34.544 24.1221 34.6667 23.6741 34.912C23.2368 35.1467 22.8955 35.4933 22.6501 35.952C22.4155 36.4 22.2981 36.944 22.2981 37.584V42H21.1621V33.6H22.2501V35.904L22.0741 35.472C22.3408 34.864 22.7675 34.3893 23.3541 34.048C23.9408 33.696 24.6395 33.52 25.4501 33.52ZM35.3186 42.08C34.5186 42.08 33.7986 41.8987 33.1586 41.536C32.5293 41.1733 32.0333 40.672 31.6706 40.032C31.308 39.3813 31.1266 38.6347 31.1266 37.792C31.1266 36.9387 31.308 36.192 31.6706 35.552C32.0333 34.912 32.5293 34.416 33.1586 34.064C33.7986 33.7013 34.5186 33.52 35.3186 33.52C36.0546 33.52 36.7106 33.6853 37.2866 34.016C37.8733 34.3467 38.3373 34.832 38.6786 35.472C39.0306 36.1013 39.2066 36.8747 39.2066 37.792C39.2066 38.6987 39.036 39.472 38.6946 40.112C38.3533 40.752 37.8893 41.2427 37.3026 41.584C36.7266 41.9147 36.0653 42.08 35.3186 42.08ZM35.3986 41.072C35.996 41.072 36.5293 40.9387 36.9986 40.672C37.4786 40.3947 37.852 40.0107 38.1186 39.52C38.396 39.0187 38.5346 38.4427 38.5346 37.792C38.5346 37.1307 38.396 36.5547 38.1186 36.064C37.852 35.5733 37.4786 35.1947 36.9986 34.928C36.5293 34.6507 35.996 34.512 35.3986 34.512C34.812 34.512 34.284 34.6507 33.8146 34.928C33.3453 35.1947 32.972 35.5733 32.6946 36.064C32.4173 36.5547 32.2786 37.1307 32.2786 37.792C32.2786 38.4427 32.4173 39.0187 32.6946 39.52C32.972 40.0107 33.3453 40.3947 33.8146 40.672C34.284 40.9387 34.812 41.072 35.3986 41.072ZM38.5666 42V39.472L38.6786 37.776L38.5186 36.08V30.128H39.6546V42H38.5666Z" fill="black"/>
<path d="M22.9719 26.08C20.4785 26.08 18.6319 25.3733 17.4319 23.96C17.0052 23.4533 16.6585 22.78 16.3919 21.94C16.1252 21.1 15.9919 20.08 15.9919 18.88C15.9919 17.68 16.1852 16.6067 16.5719 15.66C16.9719 14.7 17.5119 13.96 18.1919 13.44C19.5119 12.4667 21.1052 11.98 22.9719 11.98C23.5052 11.98 24.0252 12.0267 24.5319 12.12C25.0385 12.2 25.4185 12.2867 25.6719 12.38L26.0319 12.52L25.9719 12.72C25.0652 12.36 24.0652 12.18 22.9719 12.18C21.5585 12.18 20.3785 12.64 19.4319 13.56C18.7119 14.24 18.2052 15.24 17.9119 16.56C17.7385 17.3067 17.6519 18.22 17.6519 19.3C17.6519 20.38 17.8052 21.38 18.1119 22.3C18.4185 23.2067 18.7652 23.88 19.1519 24.32C19.5519 24.76 20.0319 25.1133 20.5919 25.38C21.1519 25.6333 21.5985 25.78 21.9319 25.82C22.2652 25.86 22.6652 25.88 23.1319 25.88C23.6119 25.88 24.1519 25.8333 24.7519 25.74C25.3519 25.6467 25.8052 25.56 26.1119 25.48L26.5719 25.34L26.6319 25.54C25.6185 25.9 24.3985 26.08 22.9719 26.08ZM30.6756 26C29.5023 26 28.7623 25.6933 28.4556 25.08C28.389 24.9467 28.3556 24.8267 28.3556 24.72V11.02H29.7556V24.58C29.7556 24.9667 29.829 25.2667 29.9756 25.48C30.1356 25.68 30.2956 25.7867 30.4556 25.8L30.6756 25.84H31.2956V26H30.6756ZM33.1675 21.12C33.1675 22.7733 33.4542 23.9867 34.0275 24.76C34.6142 25.5333 35.3808 25.92 36.3275 25.92C37.6608 25.92 38.8475 25.72 39.8875 25.32L39.9475 25.46C38.8808 25.8733 37.6742 26.08 36.3275 26.08C34.9942 26.08 33.9075 25.68 33.0675 24.88C32.2275 24.08 31.8075 22.8467 31.8075 21.18C31.8075 19.5133 32.2475 18.22 33.1275 17.3C34.0075 16.38 35.1275 15.92 36.4875 15.92C37.5808 15.92 38.5008 16.2467 39.2475 16.9C39.9942 17.5533 40.3675 18.52 40.3675 19.8C40.3675 19.8667 40.3675 19.9333 40.3675 20H33.2275C33.1875 20.36 33.1675 20.7333 33.1675 21.12ZM39.0075 19.84C38.9942 18.56 38.7475 17.6133 38.2675 17C37.7875 16.3867 37.1675 16.08 36.4075 16.08C35.6475 16.08 34.9675 16.4133 34.3675 17.08C33.7808 17.7467 33.4075 18.6667 33.2475 19.84H39.0075ZM50.048 26C49.1413 26 48.5213 25.8267 48.188 25.48C47.8813 25.1867 47.728 24.9333 47.728 24.72V24.3C47.0746 25.4867 46.028 26.08 44.588 26.08C42.908 26.08 41.9546 25.32 41.728 23.8C41.7013 23.64 41.688 23.48 41.688 23.32C41.688 23.1467 41.7146 22.96 41.768 22.76C41.8213 22.56 41.9746 22.34 42.228 22.1C42.7346 21.62 43.848 21.3267 45.568 21.22C45.9946 21.18 46.388 21.16 46.748 21.16C47.108 21.16 47.4346 21.1733 47.728 21.2V17.88C47.7013 17.8667 47.7013 17.8067 47.728 17.7C47.7546 17.58 47.728 17.4333 47.648 17.26C47.5813 17.0733 47.488 16.8933 47.368 16.72C47.248 16.5467 47.0346 16.4 46.728 16.28C46.4213 16.1467 46.0213 16.08 45.528 16.08C45.0346 16.08 44.4546 16.1733 43.788 16.36C43.1346 16.5333 42.6546 16.7067 42.348 16.88L42.268 16.74C43.4546 16.1933 44.6613 15.92 45.888 15.92C47.2613 15.92 48.168 16.1667 48.608 16.66C48.9546 17.0467 49.128 17.4533 49.128 17.88V24.58C49.128 24.9667 49.2013 25.2667 49.348 25.48C49.508 25.68 49.668 25.7867 49.828 25.8L50.048 25.84H50.668V26H50.048ZM44.908 25.92C45.6146 25.92 46.248 25.68 46.808 25.2C47.3813 24.7067 47.688 24.2333 47.728 23.78V21.36C47.368 21.3333 47.0013 21.32 46.628 21.32C46.268 21.32 45.908 21.34 45.548 21.38C44.5346 21.5 43.8746 21.7267 43.568 22.06C43.2613 22.3933 43.108 22.8533 43.108 23.44C43.108 23.5467 43.1146 23.6667 43.128 23.8C43.248 25.2133 43.8413 25.92 44.908 25.92ZM55.5884 16.86V16.44C54.9884 16.68 54.4418 17.1667 53.9484 17.9C53.4551 18.62 53.1951 19.3 53.1684 19.94V26H51.7684V16H53.1684V19.18C53.3818 18.4067 53.7884 17.68 54.3884 17C54.9884 16.3067 55.6684 15.9467 56.4284 15.92H56.5084C56.7751 15.92 56.9951 16.0133 57.1684 16.2C57.3551 16.3733 57.4484 16.5933 57.4484 16.86C57.4484 17.1267 57.3551 17.3467 57.1684 17.52C56.9951 17.6933 56.7751 17.78 56.5084 17.78C56.2418 17.78 56.0218 17.6933 55.8484 17.52C55.6751 17.3467 55.5884 17.1267 55.5884 16.86Z" fill="black"/>
</svg>
