<svg width="40" height="40" viewBox="0 0 40 40" fill="none" xmlns="http://www.w3.org/2000/svg">
<path d="M19.5 19.2125C18.7896 19.2125 18.1083 18.9294 17.606 18.4254C17.1036 17.9213 16.8214 17.2378 16.8214 16.525C16.8214 15.8122 17.1036 15.1287 17.606 14.6247C18.1083 14.1206 18.7896 13.8375 19.5 13.8375C20.2104 13.8375 20.8917 14.1206 21.394 14.6247C21.8964 15.1287 22.1786 15.8122 22.1786 16.525C22.1786 16.8779 22.1093 17.2274 21.9747 17.5535C21.8401 17.8795 21.6428 18.1758 21.394 18.4254C21.1453 18.6749 20.85 18.8729 20.525 19.0079C20.2001 19.143 19.8518 19.2125 19.5 19.2125ZM19.5 9C17.5109 9 15.6032 9.79281 14.1967 11.204C12.7902 12.6152 12 14.5292 12 16.525C12 22.1688 19.5 30.5 19.5 30.5C19.5 30.5 27 22.1688 27 16.525C27 14.5292 26.2098 12.6152 24.8033 11.204C23.3968 9.79281 21.4891 9 19.5 9Z" fill="#FF0230"/>
<circle cx="20" cy="20" r="18.5" stroke="#FF0230" stroke-width="3"/>
</svg>
