<svg width="40" height="40" viewBox="0 0 40 40" fill="none" xmlns="http://www.w3.org/2000/svg">
<circle cx="20" cy="20" r="18.5" stroke="#FF0230" stroke-width="3"/>
<path d="M10.9739 28.1111C10.4117 28.1111 9.94233 27.9229 9.56589 27.5464C9.18863 27.1692 9 26.6994 9 26.1372V12.9739C9 12.4117 9.18863 11.9423 9.56589 11.5659C9.94233 11.1886 10.4117 11 10.9739 11H29.0261C29.5883 11 30.0577 11.1886 30.4341 11.5659C30.8114 11.9423 31 12.4117 31 12.9739V26.1372C31 26.6994 30.8118 27.1688 30.4353 27.5452C30.0581 27.9225 29.5883 28.1111 29.0261 28.1111H10.9739ZM20 19.6961L29.7778 13.3039L29.4013 12.2222L20 18.3333L10.5987 12.2222L10.2222 13.3039L20 19.6961Z" fill="#FF0230"/>
</svg>
