<svg width="40" height="40" viewBox="0 0 40 40" fill="none" xmlns="http://www.w3.org/2000/svg">
<circle cx="20" cy="20" r="18.5" stroke="#FF0230" stroke-width="3"/>
<path d="M23.952 23.1177L23.4464 23.621C23.4464 23.621 22.2431 24.8166 18.9598 21.5521C15.6765 18.2877 16.8798 17.0922 16.8798 17.0922L17.1976 16.7744C17.9831 15.9944 18.0576 14.7411 17.372 13.8255L15.972 11.9555C15.1231 10.8222 13.4843 10.6722 12.512 11.6389L10.7676 13.3722C10.2865 13.8522 9.96428 14.4722 10.0032 15.1611C10.1032 16.9244 10.9009 20.7166 15.3498 25.141C20.0687 29.8321 24.4964 30.0187 26.3064 29.8499C26.8797 29.7965 27.3775 29.5054 27.7786 29.1054L29.3564 27.5365C30.423 26.4777 30.123 24.661 28.7586 23.9199L26.6364 22.7655C25.7408 22.2799 24.652 22.4221 23.952 23.1177Z" fill="#FF0230"/>
</svg>
