<svg width="44" height="44" viewBox="0 0 44 44" fill="none" xmlns="http://www.w3.org/2000/svg">
<path d="M7.85891 7.85684C4.58684 11.1284 2.55037 15.4334 2.09649 20.0381C1.6426 24.6429 2.79939 29.2626 5.36975 33.1101C7.9401 36.9576 11.765 39.7948 16.1927 41.1383C20.6204 42.4819 25.377 42.2486 29.652 40.4783C33.9271 38.7079 37.456 35.5101 39.6375 31.4295C41.8191 27.349 42.5183 22.6383 41.616 18.1001C40.7138 13.5618 38.2659 9.47678 34.6894 6.54104C31.1129 3.6053 26.6291 2.00047 22.002 2V7.26316M22.002 22L11.4757 11.4737M40.9494 22H36.7389M22.002 36.7368V40.9474M7.26523 22H3.05471" stroke="#FF0230" stroke-width="3" stroke-linecap="round"/>
</svg>
