<svg width="30" height="30" viewBox="0 0 30 30" fill="none" xmlns="http://www.w3.org/2000/svg">
<path d="M5.32667 24.1417C6.74333 23.1217 8.24667 22.3156 9.83667 21.7233C11.4256 21.13 13.1467 20.8333 15 20.8333C16.8522 20.8333 18.5733 21.13 20.1633 21.7233C21.7522 22.3156 23.2556 23.1211 24.6733 24.14C25.7733 23.0022 26.6583 21.6578 27.3283 20.1067C27.9983 18.5533 28.3333 16.8511 28.3333 15C28.3333 11.3056 27.035 8.15944 24.4383 5.56167C21.8417 2.96389 18.6956 1.66556 15 1.66667C11.3056 1.66667 8.15944 2.96556 5.56167 5.56333C2.96389 8.16111 1.66556 11.3067 1.66667 15C1.66667 16.8522 2.00167 18.5539 2.67167 20.105C3.34167 21.6572 4.22667 23.0028 5.32667 24.1417ZM15 15.8333C13.5967 15.8333 12.4122 15.3511 11.4467 14.3867C10.4822 13.4211 10 12.2367 10 10.8333C10 9.43 10.4822 8.24555 11.4467 7.28C12.4122 6.31556 13.5967 5.83333 15 5.83333C16.4033 5.83333 17.5878 6.31556 18.5533 7.28C19.5178 8.24555 20 9.43 20 10.8333C20 12.2367 19.5178 13.4211 18.5533 14.3867C17.5878 15.3511 16.4033 15.8333 15 15.8333ZM15 30C12.9078 30 10.9494 29.6106 9.125 28.8317C7.30056 28.0539 5.71278 26.9894 4.36167 25.6383C3.01167 24.2872 1.94722 22.6994 1.16833 20.875C0.389444 19.0506 0 17.0922 0 15C0 12.9078 0.389444 10.9494 1.16833 9.125C1.94611 7.30056 3.01056 5.71278 4.36167 4.36167C5.71278 3.01167 7.30056 1.94722 9.125 1.16833C10.9494 0.389444 12.9078 0 15 0C17.0922 0 19.0506 0.389444 20.875 1.16833C22.6994 1.94611 24.2872 3.01056 25.6383 4.36167C26.9883 5.71278 28.0528 7.30056 28.8317 9.125C29.6106 10.9494 30 12.9078 30 15C30 17.0922 29.6106 19.0506 28.8317 20.875C28.0539 22.6994 26.9894 24.2872 25.6383 25.6383C24.2872 26.9883 22.6994 28.0528 20.875 28.8317C19.0506 29.6106 17.0922 30 15 30Z" fill="#9E9E9E"/>
</svg>
