<svg width="29" height="26" viewBox="0 0 29 26" fill="none" xmlns="http://www.w3.org/2000/svg">
<path d="M20.9732 0.571426C18.2998 0.571426 15.9591 1.72134 14.5 3.66506C13.0409 1.72134 10.7002 0.571426 8.02679 0.571426C5.89869 0.573826 3.85844 1.42047 2.35364 2.92562C0.848846 4.43077 0.00239863 6.4715 0 8.60011C0 17.6647 13.4371 25.0019 14.0093 25.3049C14.1602 25.3861 14.3287 25.4286 14.5 25.4286C14.6713 25.4286 14.8398 25.3861 14.9907 25.3049C15.5629 25.0019 29 17.6647 29 8.60011C28.9976 6.4715 28.1512 4.43077 26.6464 2.92562C25.1416 1.42047 23.1013 0.573826 20.9732 0.571426ZM14.5 23.2071C12.136 21.8293 2.07143 15.5527 2.07143 8.60011C2.07348 7.02091 2.70158 5.50697 3.81798 4.39031C4.93438 3.27365 6.44796 2.6454 8.02679 2.64334C10.5449 2.64334 12.659 3.98491 13.542 6.1397C13.62 6.32971 13.7527 6.49222 13.9233 6.6066C14.0939 6.72097 14.2946 6.78203 14.5 6.78203C14.7054 6.78203 14.9061 6.72097 15.0767 6.6066C15.2473 6.49222 15.38 6.32971 15.458 6.1397C16.341 3.98102 18.4551 2.64334 20.9732 2.64334C22.552 2.6454 24.0656 3.27365 25.182 4.39031C26.2984 5.50697 26.9265 7.02091 26.9286 8.60011C26.9286 15.5423 16.8614 21.828 14.5 23.2071Z" fill="black"/>
</svg>
